<?xml version="1.0" standalone="no"?>
<!DOCTYPE svg PUBLIC "-//W3C//DTD SVG 20010904//EN"
 "http://www.w3.org/TR/2001/REC-SVG-20010904/DTD/svg10.dtd">
<svg version="1.0" xmlns="http://www.w3.org/2000/svg"
 width="580.000000pt" height="386.000000pt" viewBox="0 0 580.000000 386.000000"
 preserveAspectRatio="xMidYMid meet">

<g transform="translate(0.000000,386.000000) scale(0.100000,-0.100000)"
fill="#000000" stroke="none">
<path d="M1938 3111 c-167 -54 -293 -204 -321 -381 -16 -107 -1 -169 85 -341
113 -225 372 -718 378 -719 3 0 27 42 52 93 26 50 120 229 208 397 170 320
210 416 210 499 0 205 -136 392 -328 451 -83 26 -205 26 -284 1z m259 -191
c61 -27 128 -100 148 -161 21 -62 16 -168 -9 -216 -27 -54 -76 -103 -130 -131
-68 -36 -180 -38 -242 -5 -104 55 -154 127 -162 232 -5 78 7 126 49 187 74
109 221 149 346 94z"/>
<path d="M2962 2547 l-234 -234 -106 19 c-59 10 -110 18 -113 18 -6 0 -32 -51
-27 -55 2 -1 56 -10 120 -20 l117 -18 105 -320 105 -321 -20 -24 c-15 -19 -16
-28 -8 -39 9 -10 15 -11 26 -2 7 7 15 10 17 8 7 -7 143 -429 140 -432 -2 -2
-61 3 -131 11 -70 7 -204 21 -298 31 l-170 18 -195 -175 c-107 -97 -211 -190
-231 -209 l-36 -34 -153 443 c-84 244 -168 486 -186 538 -19 52 -34 101 -34
108 0 8 26 41 58 75 110 118 105 112 90 142 l-14 26 -103 -111 -104 -111 208
-602 c115 -331 210 -604 211 -605 1 -2 117 99 256 225 l254 230 75 -8 c41 -5
183 -19 317 -33 l243 -25 236 212 c209 188 239 212 267 210 17 -1 167 -16 334
-33 167 -18 306 -30 308 -27 3 2 -25 101 -60 218 -194 636 -304 990 -309 996
-7 6 -682 143 -707 143 -8 0 -120 -105 -248 -233z m587 108 c178 -35 324 -65
325 -67 1 -2 19 -57 39 -123 20 -66 93 -304 162 -530 156 -508 142 -453 108
-448 -15 2 -154 17 -308 32 l-280 29 -30 -27 c-235 -214 -417 -372 -422 -368
-3 3 -40 113 -82 243 -74 226 -77 239 -63 267 12 24 12 31 1 38 -7 4 -18 4
-24 -1 -8 -6 -40 80 -103 275 -51 156 -92 289 -92 296 0 12 428 449 440 449 3
0 151 -29 329 -65z"/>
<path d="M3830 2370 c0 -14 7 -20 24 -20 23 0 41 22 29 34 -4 3 -17 6 -30 6
-16 0 -23 -6 -23 -20z"/>
<path d="M3704 2364 c3 -9 6 -17 6 -18 0 -2 11 -1 25 2 37 7 32 32 -6 32 -24
0 -30 -3 -25 -16z"/>
<path d="M3592 2362 c-7 -5 -10 -15 -7 -24 9 -22 55 -11 55 13 0 20 -25 25
-48 11z"/>
<path d="M3483 2330 c-33 -13 -19 -44 16 -35 32 8 33 9 25 29 -7 18 -10 18
-41 6z"/>
<path d="M3368 2277 c-12 -9 -14 -18 -7 -30 9 -15 12 -16 34 -1 14 9 21 22 18
30 -6 17 -23 18 -45 1z"/>
<path d="M3271 2209 c-21 -18 -23 -22 -10 -35 13 -13 18 -12 37 9 18 19 20 26
10 35 -10 7 -20 5 -37 -9z"/>
<path d="M3180 2125 c-13 -15 -7 -45 8 -45 5 0 17 9 28 21 16 17 16 22 4 29
-20 13 -26 12 -40 -5z"/>
<path d="M3111 2026 c-13 -24 -9 -46 9 -46 5 0 14 10 21 21 8 17 8 24 -3 35
-12 13 -16 11 -27 -10z"/>
<path d="M3049 1913 c-12 -33 9 -52 29 -26 16 23 15 40 -3 47 -11 4 -19 -3
-26 -21z"/>
<path d="M3007 1798 c-3 -12 -4 -25 -1 -30 6 -10 34 -11 34 0 0 4 3 17 6 30 5
17 2 22 -14 22 -12 0 -22 -9 -25 -22z"/>
<path d="M1756 1644 c-7 -19 -8 -18 20 -32 17 -9 24 -8 33 2 9 11 7 18 -11 30
-28 20 -34 20 -42 0z"/>
<path d="M1867 1593 c-12 -12 -7 -20 20 -32 21 -10 28 -9 34 1 14 21 -36 50
-54 31z"/>
<path d="M1981 1541 c-9 -16 -6 -21 18 -29 24 -8 31 -7 35 5 7 18 8 16 -21 32
-19 9 -24 8 -32 -8z"/>
<path d="M2096 1503 c-7 -18 -8 -17 20 -31 12 -6 24 -8 28 -5 13 13 5 30 -18
41 -20 9 -25 8 -30 -5z"/>
<path d="M2816 1507 c-14 -10 -16 -18 -9 -31 9 -16 11 -16 33 2 13 11 20 24
16 30 -9 15 -18 15 -40 -1z"/>
<path d="M2210 1461 c0 -18 35 -35 52 -25 16 10 8 32 -14 38 -34 9 -38 8 -38
-13z"/>
<path d="M2713 1459 c-25 -9 -32 -39 -9 -39 25 0 46 12 46 25 0 20 -12 24 -37
14z"/>
<path d="M2330 1431 c0 -17 6 -21 31 -21 24 0 30 4 27 18 -2 10 -14 18 -31 20
-22 3 -27 -1 -27 -17z"/>
<path d="M2450 1421 c0 -17 6 -21 30 -21 20 0 30 5 30 15 0 8 -6 15 -14 15 -8
0 -21 3 -30 6 -12 4 -16 0 -16 -15z"/>
<path d="M2577 1433 c-17 -16 -5 -33 23 -33 23 0 30 4 30 20 0 14 -7 20 -23
20 -13 0 -27 -3 -30 -7z"/>
</g>
</svg>
