<?xml version="1.0" standalone="no"?>
<!DOCTYPE svg PUBLIC "-//W3C//DTD SVG 20010904//EN"
 "http://www.w3.org/TR/2001/REC-SVG-20010904/DTD/svg10.dtd">
<svg version="1.0" xmlns="http://www.w3.org/2000/svg"
 width="256.000000pt" height="256.000000pt" viewBox="0 0 256.000000 256.000000"
 preserveAspectRatio="xMidYMid meet">
<metadata>
Created by potrace 1.10, written by Peter Selinger 2001-2011
</metadata>
<g transform="translate(0.000000,256.000000) scale(0.100000,-0.100000)"
fill="#000000" stroke="none">
<path d="M1055 2539 c-388 -65 -748 -339 -926 -704 -76 -157 -119 -328 -119
-470 1 -93 12 -70 40 80 68 369 225 630 499 834 158 117 332 187 577 231 66
12 126 26 134 31 19 11 -136 10 -205 -2z"/>
<path d="M1300 2541 c8 -5 68 -19 134 -31 208 -38 363 -92 491 -172 321 -203
515 -498 585 -892 26 -149 39 -176 40 -81 0 142 -43 313 -119 470 -180 369
-540 641 -934 705 -78 12 -218 13 -197 1z"/>
<path d="M1085 2434 c-700 -125 -1131 -830 -919 -1506 48 -153 172 -365 235
-402 26 -16 28 -15 52 14 14 16 31 46 37 67 23 70 90 189 145 256 68 82 152
151 247 201 83 44 118 72 118 95 0 9 -29 46 -63 82 -113 120 -165 255 -152
397 18 212 162 385 366 443 57 16 201 16 258 0 130 -37 253 -136 311 -251 102
-202 67 -416 -97 -589 -34 -36 -63 -73 -63 -82 0 -22 34 -50 114 -93 99 -53
177 -116 246 -198 59 -70 126 -188 150 -261 6 -21 23 -51 37 -67 24 -29 26
-30 52 -14 54 32 156 194 212 338 203 523 -8 1128 -494 1421 -230 138 -532
195 -792 149z m348 -35 c434 -65 782 -357 921 -773 119 -357 44 -756 -202
-1065 l-20 -24 -17 58 c-64 222 -265 447 -478 535 l-55 23 68 63 c124 117 186
292 162 458 -32 221 -196 399 -416 451 -299 71 -603 -140 -648 -451 -24 -166
38 -341 162 -458 l68 -63 -55 -23 c-124 -52 -286 -185 -365 -301 -45 -68 -95
-169 -113 -234 l-17 -58 -20 24 c-285 359 -337 816 -136 1223 209 427 697 685
1161 615z"/>
<path d="M1149 2006 c-152 -53 -246 -158 -286 -320 -68 -276 201 -559 483
-507 229 42 394 265 355 482 -37 213 -215 369 -421 369 -43 0 -88 -8 -131 -24z
m224 -31 c81 -21 125 -46 180 -101 218 -220 105 -589 -199 -651 -66 -13 -82
-13 -148 0 -160 33 -279 155 -307 315 -21 120 20 247 108 336 99 99 232 136
366 101z"/>
<path d="M11 1195 c-3 -265 134 -576 352 -801 189 -197 443 -332 700 -374 65
-10 214 -14 205 -5 -3 3 -72 19 -154 36 -329 67 -524 166 -725 369 -173 176
-279 389 -334 671 -33 172 -43 196 -44 104z"/>
<path d="M2538 1245 c-4 -11 -19 -78 -33 -150 -59 -293 -159 -496 -333 -672
-188 -191 -384 -298 -652 -356 -63 -13 -142 -31 -175 -38 l-60 -14 69 -3 c137
-6 318 38 481 117 372 181 644 544 706 941 11 73 9 209 -3 175z"/>
<path d="M1145 1085 c-178 -33 -338 -126 -451 -264 -72 -86 -108 -152 -144
-260 -43 -128 -41 -149 19 -203 101 -90 269 -173 446 -219 78 -20 114 -24 265
-24 192 0 273 15 430 77 162 64 330 186 330 239 0 77 -53 214 -127 326 -165
253 -471 383 -768 328z m319 -50 c225 -61 412 -228 494 -442 17 -43 34 -101
39 -129 l10 -50 -71 -51 c-394 -282 -925 -282 -1314 1 l-70 51 23 91 c13 50
33 111 45 135 103 202 298 357 502 398 29 6 62 13 73 15 37 9 210 -4 269 -19z"/>
</g>
</svg>
